<svg xmlns="http://www.w3.org/2000/svg" width="11.2" height="11.2" viewBox="0 0 11.2 11.2"><defs><style>.a{fill:#009de0;}</style></defs><path class="a" d="M11.762,6.163a5.6,5.6,0,1,1-5.6-5.6A5.6,5.6,0,0,1,11.762,6.163ZM6.313,2.414a2.925,2.925,0,0,0-2.632,1.44.271.271,0,0,0,.061.367l.784.594A.271.271,0,0,0,4.9,4.767c.4-.512.68-.808,1.294-.808.461,0,1.032.3,1.032.744,0,.338-.279.512-.735.767-.531.3-1.234.668-1.234,1.6v.09a.271.271,0,0,0,.271.271H6.795a.271.271,0,0,0,.271-.271v-.03c0-.643,1.878-.669,1.878-2.409A2.576,2.576,0,0,0,6.313,2.414Zm-.15,5.6A1.039,1.039,0,1,0,7.2,9.053,1.04,1.04,0,0,0,6.163,8.014Z" transform="translate(-0.563 -0.563)"/></svg>