<svg xmlns="http://www.w3.org/2000/svg" width="23.939" height="16.203" viewBox="0 0 23.939 16.203"><defs><style>.a{fill:#6a6a6a;}</style></defs><g transform="translate(-3.375 -7.875)"><path class="a" d="M27.119,10.347,20.927,16.3a.1.1,0,0,0,0,.152l4.333,4.358a.678.678,0,0,1,0,1,.782.782,0,0,1-1.059,0l-4.316-4.342a.123.123,0,0,0-.167,0l-1.053,1.011a4.772,4.772,0,0,1-3.3,1.315,4.866,4.866,0,0,1-3.372-1.353l-1.013-.973a.123.123,0,0,0-.167,0L6.494,21.813a.782.782,0,0,1-1.059,0,.678.678,0,0,1,0-1l4.333-4.358a.111.111,0,0,0,0-.152l-6.2-5.955a.114.114,0,0,0-.2.076V22.34a1.8,1.8,0,0,0,1.841,1.739H25.473a1.8,1.8,0,0,0,1.841-1.739V10.423A.116.116,0,0,0,27.119,10.347Z"/><path class="a" d="M15.345,17.2a3.271,3.271,0,0,0,2.219-.835l8.906-8.13a1.915,1.915,0,0,0-1.124-.356h-20a1.9,1.9,0,0,0-1.124.356l8.906,8.13A3.271,3.271,0,0,0,15.345,17.2Z"/></g></svg>