<svg xmlns="http://www.w3.org/2000/svg" width="32.708" height="23.513" viewBox="0 0 32.708 23.513"><defs><style>.a{fill:#707070;stroke:#fff;}</style></defs><g transform="translate(0.5 0.5)"><path class="a" d="M15.854,16.257a5.236,5.236,0,0,0,5.171-5.128A5.236,5.236,0,0,0,15.854,6a5.128,5.128,0,0,0,0,10.257Zm0,1.711C12.565,17.968,6,20.539,6,23.949v2.564H25.708V23.949C25.708,20.539,19.143,17.968,15.854,17.968Z" transform="translate(-6 -6)"/><g transform="translate(12)"><path class="a" d="M15.854,16.257a5.236,5.236,0,0,0,5.171-5.128A5.236,5.236,0,0,0,15.854,6a5.128,5.128,0,0,0,0,10.257Zm0,1.711C12.565,17.968,6,20.539,6,23.949v2.564H25.708V23.949C25.708,20.539,19.143,17.968,15.854,17.968Z" transform="translate(-6 -6)"/></g><g transform="translate(6 2)"><path class="a" d="M15.854,16.257a5.236,5.236,0,0,0,5.171-5.128A5.236,5.236,0,0,0,15.854,6a5.128,5.128,0,0,0,0,10.257Zm0,1.711C12.565,17.968,6,20.539,6,23.949v2.564H25.708V23.949C25.708,20.539,19.143,17.968,15.854,17.968Z" transform="translate(-6 -6)"/></g></g></svg>