<svg xmlns="http://www.w3.org/2000/svg" width="28.521" height="25.31" viewBox="0 0 28.521 25.31"><defs><style>.a{fill:#6a6a6a;}</style></defs><path class="a" d="M13.881,8.82,4.753,17.4v9.26a.854.854,0,0,0,.792.9l5.548-.016a.854.854,0,0,0,.788-.9V21.235a.854.854,0,0,1,.792-.9h3.169a.854.854,0,0,1,.792.9v5.4a.973.973,0,0,0,.231.641.746.746,0,0,0,.561.266l5.546.018a.854.854,0,0,0,.792-.9V17.393L14.639,8.82A.547.547,0,0,0,13.881,8.82ZM28.3,14.651l-4.139-3.894V2.932a.64.64,0,0,0-.594-.678H20.795a.64.64,0,0,0-.594.678v4.1L15.768,2.872a2.154,2.154,0,0,0-3.02,0L.215,14.651a.745.745,0,0,0-.079.955L1.4,17.358a.577.577,0,0,0,.4.244.546.546,0,0,0,.435-.152L13.881,6.5a.547.547,0,0,1,.758,0L26.286,17.45a.545.545,0,0,0,.837-.09l1.263-1.752a.745.745,0,0,0,.132-.5.71.71,0,0,0-.216-.458Z" transform="translate(0.001 -2.254)"/></svg>