<svg xmlns="http://www.w3.org/2000/svg" width="245" height="122" viewBox="0 0 245 122"><defs><style>.a{fill:#707070;font-size:40px;font-family:Avenir-Medium, Avenir;font-weight:500;}.b{fill:#f6bbc5;fill-rule:evenodd;}</style></defs><text class="a" transform="translate(61 52)"><tspan x="0" y="0">hhh hi!</tspan></text><text class="a" transform="translate(54 107)"><tspan x="0" y="0">Great day!</tspan></text><path class="b" d="M101.9,63.63c-.668-.779-.588-1.989-.989-3.091a14.572,14.572,0,0,0-1.229-2.715,8.771,8.771,0,0,0-2.325-2.338c-.481-.323-1.015-.4-1.336-.86-1.176-1.613-1.9-3.467-3.073-5.053-1.042-1.425-2.806-1.8-4.409-2.715-1.336-.753-2.271-2.258-3.313-3.333-.534-.538-1.363-.887-1.844-1.478-2.539-.215-2.539.618-3.554,2.2-.267.43-.721.806-.989,1.236-1.176-.161-1.871-2.553-2.325-3.575-.16-.323-.561-.672-.721-.994-1.256-2.07-1.924-4.327-4.65-4.919-.374.376-.962.618-1.229,1.1-.24.484-.08.887-.24,1.478-1.015,3.924.748,7.821.855,11.208-.828-.242-1.229-1.371-1.71-1.962a25.96,25.96,0,0,0-5.024-4.677c-.641-.457-2.432-1.935-3.42-1.478-.962,0-1.015.3-1.6.618-1.336,3.575.855,6.666.855,10.59-.24.3-.481.564-.721.86-2.031,1.075-5.264.618-6.36,2.58a3.861,3.861,0,0,0,.481,3.44c1.176,1.64,4.356,3.924,6.119,5.053v.242c-.909.7-2.352.941-3.18,1.72-.214.215-.294.618-.481.86a2.265,2.265,0,0,0,.134,1.1c.214.43.668.4,1.336.376a6.283,6.283,0,0,0,1.71,2.2c.534.4,1.229.564,1.47,1.236.187.511-.775,1.478-.989,2.1a4.634,4.634,0,0,0,.721,3.682,14.64,14.64,0,0,0,3.794,3.333c.668.511,1.015,1.371,1.6,1.962a11.617,11.617,0,0,0,2.191,1.478c.882.618,1.363,1.908,2.191,2.58a11.575,11.575,0,0,0,4.169,1.855,10.868,10.868,0,0,0,4.409.242,8.238,8.238,0,0,1,3.42-.376c1.176.269,2.485.7,3.661.994h2.325c2.164-.484,5.665-1.209,7.215-2.338,1.015-.726,1.39-2.285,1.71-3.682.107-.511-.08-1.129.134-1.478.668-.484,2.352-.511,3.18-1.1,1.229-.887,1.47-2.742,2.325-4.059,1.176-1.828,3.02-3.333,3.794-5.537C107.376,68.468,103.341,65.323,101.9,63.63Zm-9.94,9.353a12.14,12.14,0,0,1-2.378,4,11.28,11.28,0,0,1-3.688,2.661,11.8,11.8,0,0,1-4.783.968,11.374,11.374,0,0,1-4.783-.968,10.9,10.9,0,0,1-3.661-2.661,12.14,12.14,0,0,1-2.378-4,14.738,14.738,0,0,1-.828-5.053,13.863,13.863,0,0,1,.828-4.784,11.55,11.55,0,0,1,2.378-3.87,11.417,11.417,0,0,1,3.661-2.607,12.631,12.631,0,0,1,9.566,0,10.751,10.751,0,0,1,3.688,2.607,11.821,11.821,0,0,1,2.378,3.87,13.262,13.262,0,0,1,.828,4.784,14.223,14.223,0,0,1-.828,5.053Z" transform="translate(-52.304 -36)"/></svg>