<svg xmlns="http://www.w3.org/2000/svg" width="236" height="73" viewBox="0 0 236 73"><defs><style>.a,.c{fill:#707070;}.a{font-size:27px;font-family:Menlo-Regular, Menlo;}.b{fill:#f6bbc5;fill-rule:evenodd;}.c{font-size:31px;font-family:Avenir-Medium, Avenir;font-weight:500;}</style></defs><text class="a" transform="translate(57 67)"><tspan x="0" y="0">hhhboarding</tspan></text><g transform="translate(0 15)"><path class="b" d="M100.979,64.138c-.656-.794-.577-2.025-.97-3.148A15.117,15.117,0,0,0,98.8,58.226a8.781,8.781,0,0,0-2.282-2.381c-.472-.328-1-.411-1.311-.876-1.154-1.642-1.862-3.531-3.016-5.146-1.023-1.451-2.754-1.834-4.327-2.765-1.311-.766-2.229-2.3-3.252-3.394-.525-.547-1.338-.9-1.81-1.505-2.492-.219-2.492.63-3.488,2.244-.262.438-.708.821-.97,1.259-1.154-.164-1.836-2.6-2.282-3.64-.157-.328-.551-.684-.708-1.013C74.123,38.9,73.467,36.6,70.792,36c-.367.383-.944.63-1.206,1.122-.236.493-.079.9-.236,1.505-1,4,.734,7.965.839,11.414-.813-.246-1.206-1.4-1.678-2a25.878,25.878,0,0,0-4.931-4.763c-.629-.465-2.387-1.971-3.357-1.505-.944,0-1,.3-1.574.63-1.311,3.64.839,6.788.839,10.784-.236.3-.472.575-.708.876-1.993,1.095-5.167.63-6.242,2.628a4.056,4.056,0,0,0,.472,3.5c1.154,1.67,4.275,4,6.006,5.146v.246c-.892.712-2.308.958-3.121,1.752-.21.219-.288.63-.472.876a2.387,2.387,0,0,0,.131,1.122c.21.438.656.411,1.311.383a6.372,6.372,0,0,0,1.678,2.244c.525.411,1.206.575,1.442,1.259.184.52-.761,1.505-.97,2.135a4.861,4.861,0,0,0,.708,3.75A14.549,14.549,0,0,0,63.449,82.5a19.167,19.167,0,0,1,1.574,2,11.388,11.388,0,0,0,2.151,1.505c.865.63,1.338,1.943,2.151,2.628a11.164,11.164,0,0,0,4.091,1.889,10.292,10.292,0,0,0,4.327.246,7.81,7.81,0,0,1,3.357-.383c1.154.274,2.439.712,3.593,1.013h2.282c2.124-.493,5.56-1.232,7.081-2.381,1-.739,1.364-2.327,1.678-3.75.1-.52-.079-1.15.131-1.505.656-.493,2.308-.52,3.121-1.122,1.206-.9,1.442-2.792,2.282-4.133,1.154-1.861,2.964-3.394,3.724-5.639C106.355,69.065,102.4,65.862,100.979,64.138Zm-9.756,9.525a12.468,12.468,0,0,1-2.334,4.078,11.1,11.1,0,0,1-3.619,2.71,11.225,11.225,0,0,1-4.695.985,10.668,10.668,0,0,1-8.288-3.7,12.468,12.468,0,0,1-2.334-4.078,15.522,15.522,0,0,1-.813-5.146,14.6,14.6,0,0,1,.813-4.872A11.845,11.845,0,0,1,72.287,59.7a11.222,11.222,0,0,1,3.593-2.655,11.981,11.981,0,0,1,9.389,0A10.564,10.564,0,0,1,88.889,59.7a12.123,12.123,0,0,1,2.334,3.942,13.962,13.962,0,0,1,.813,4.872,14.978,14.978,0,0,1-.813,5.146Z" transform="translate(-52.304 -36)"/></g><text class="c" transform="translate(66 31)"><tspan x="0" y="0">Welcome to</tspan></text></svg>