<svg xmlns="http://www.w3.org/2000/svg" width="266" height="45.822" viewBox="0 0 266 45.822"><defs><style>.a,.c{fill:#707070;font-size:30px;}.a{font-family:Menlo-Regular, Menlo;}.b{fill:#f5bac4;fill-rule:evenodd;}.c{font-family:Avenir-Medium, Avenir;font-weight:500;}</style></defs><text class="a" transform="translate(211 34.822)"><tspan x="0" y="0">hhh</tspan></text><g transform="translate(175.943)"><path class="b" d="M84.438,54.488c-.433-.522-.381-1.331-.641-2.068A9.909,9.909,0,0,0,83,50.6a5.781,5.781,0,0,0-1.506-1.565c-.312-.216-.658-.27-.866-.575-.762-1.079-1.229-2.32-1.991-3.381-.675-.953-1.818-1.2-2.857-1.816a11.187,11.187,0,0,1-2.147-2.23c-.346-.36-.883-.593-1.195-.989-1.645-.144-1.645.414-2.3,1.475-.173.288-.467.54-.641.827-.762-.108-1.212-1.708-1.506-2.392-.1-.216-.364-.45-.467-.665-.814-1.385-1.247-2.9-3.013-3.291-.242.252-.623.414-.8.737-.156.324-.052.593-.156.989-.658,2.626.485,5.233.554,7.5-.537-.162-.8-.917-1.108-1.313a17.048,17.048,0,0,0-3.255-3.129c-.416-.306-1.576-1.295-2.216-.989-.623,0-.658.2-1.039.414-.866,2.392.554,4.46.554,7.086-.156.2-.312.378-.467.575-1.316.719-3.411.414-4.121,1.726a2.655,2.655,0,0,0,.312,2.3,17.939,17.939,0,0,0,3.965,3.381v.162c-.589.468-1.524.629-2.06,1.151-.139.144-.19.414-.312.575a1.561,1.561,0,0,0,.087.737c.139.288.433.27.866.252a4.189,4.189,0,0,0,1.108,1.475c.346.27.8.378.952.827.121.342-.5.989-.641,1.4a3.182,3.182,0,0,0,.467,2.464,9.588,9.588,0,0,0,2.459,2.23c.433.342.658.917,1.039,1.313a7.519,7.519,0,0,0,1.42.989c.571.414.883,1.277,1.42,1.726a7.386,7.386,0,0,0,2.7,1.241,6.826,6.826,0,0,0,2.857.162,5.179,5.179,0,0,1,2.216-.252c.762.18,1.61.468,2.372.665h1.506c1.4-.324,3.671-.809,4.675-1.565a4.185,4.185,0,0,0,1.108-2.464c.069-.342-.052-.755.087-.989.433-.324,1.524-.342,2.06-.737.8-.593.952-1.834,1.506-2.716.762-1.223,1.957-2.23,2.459-3.7C87.988,57.725,85.373,55.621,84.438,54.488ZM78,60.746a8.183,8.183,0,0,1-1.541,2.68,7.322,7.322,0,0,1-2.389,1.78,7.441,7.441,0,0,1-3.1.647,7.17,7.17,0,0,1-3.1-.647,7.08,7.08,0,0,1-2.372-1.78,8.183,8.183,0,0,1-1.541-2.68,10.154,10.154,0,0,1-.537-3.381,9.549,9.549,0,0,1,.537-3.2,7.775,7.775,0,0,1,1.541-2.59,7.406,7.406,0,0,1,2.372-1.744,7.945,7.945,0,0,1,6.2,0,6.972,6.972,0,0,1,2.389,1.744A7.958,7.958,0,0,1,78,54.164a9.134,9.134,0,0,1,.537,3.2A9.8,9.8,0,0,1,78,60.746Z" transform="translate(-52.304 -36)"/></g><text class="c" transform="translate(0 34.822)"><tspan x="0" y="0">Welcome to</tspan></text></svg>