<?xml version="1.0" standalone="no"?>
<!DOCTYPE svg PUBLIC "-//W3C//DTD SVG 20010904//EN"
 "http://www.w3.org/TR/2001/REC-SVG-20010904/DTD/svg10.dtd">
<svg version="1.0" xmlns="http://www.w3.org/2000/svg"
 width="700.000000pt" height="700.000000pt" viewBox="0 0 700.000000 700.000000"
 preserveAspectRatio="xMidYMid meet">
<metadata>
Created by potrace 1.11, written by Peter Selinger 2001-2013
</metadata>
<g transform="translate(0.000000,700.000000) scale(0.100000,-0.100000)"
fill="#000000" stroke="none">
<path d="M2379 6951 c-83 -62 -106 -98 -114 -181 -4 -36 -16 -110 -27 -165
-29 -146 -30 -338 -4 -525 13 -89 20 -128 56 -315 51 -262 58 -307 66 -390 11
-124 11 -125 -53 -71 -22 19 -62 68 -88 108 -104 156 -303 363 -515 534 -123
100 -358 263 -429 299 -112 56 -146 61 -286 39 -46 -8 -128 -58 -147 -90 -26
-46 -50 -180 -50 -289 0 -87 5 -132 27 -265 3 -14 24 -108 49 -210 64 -266 74
-321 83 -457 l6 -92 -51 -59 c-46 -53 -59 -62 -129 -85 -43 -14 -159 -42 -258
-62 -241 -50 -340 -85 -415 -147 -103 -85 -122 -280 -43 -446 58 -124 409
-432 713 -628 77 -49 120 -83 120 -94 0 -12 -27 -30 -84 -59 -47 -22 -87 -41
-90 -41 -14 0 -166 -76 -204 -102 -59 -41 -105 -133 -97 -196 13 -95 41 -122
132 -125 l58 -2 30 -51 c64 -109 175 -222 264 -267 49 -25 93 -63 110 -94 23
-44 16 -63 -68 -192 -48 -75 -63 -122 -65 -206 -4 -119 40 -253 113 -350 83
-109 260 -268 409 -366 104 -68 119 -83 204 -195 83 -109 141 -158 303 -253
103 -61 108 -66 212 -204 42 -56 88 -112 102 -125 82 -74 234 -155 416 -221
46 -17 222 -58 305 -72 76 -12 329 -17 385 -7 17 3 57 13 90 21 93 24 121 28
250 34 130 6 113 9 545 -107 108 -29 350 -27 505 5 286 58 488 124 750 246 47
21 72 41 107 86 116 147 166 291 173 496 1 51 7 83 16 91 17 16 81 37 219 70
201 50 256 95 347 286 125 261 144 297 181 335 66 70 193 235 283 370 80 121
107 165 164 270 45 84 56 241 24 356 -51 183 -156 335 -415 599 -180 184 -177
178 -219 369 -39 180 -119 374 -208 506 -87 127 -228 253 -361 321 -63 31 -87
50 -122 97 -24 31 -44 59 -44 62 0 2 -13 23 -29 47 -16 24 -64 104 -106 178
-109 191 -199 325 -253 379 -62 61 -141 108 -320 191 -81 37 -166 78 -189 91
-95 54 -293 240 -405 378 -23 29 -87 85 -141 123 -53 38 -106 78 -116 90 -17
17 -32 20 -109 20 -103 1 -174 -19 -220 -60 -16 -15 -60 -74 -96 -132 -37 -58
-90 -131 -119 -164 -29 -32 -55 -63 -58 -69 -11 -17 -55 1 -96 40 -53 51 -88
113 -158 273 -33 77 -76 159 -101 190 -23 30 -75 111 -114 180 -183 317 -260
401 -430 468 -95 37 -98 37 -171 -17z m1622 -2451 c169 -29 310 -71 425 -126
295 -142 534 -384 678 -688 188 -397 202 -933 34 -1351 -164 -411 -451 -699
-843 -847 -184 -69 -319 -92 -545 -93 -196 0 -249 5 -387 36 -99 21 -338 115
-388 151 -5 4 -47 32 -93 63 -343 228 -571 614 -636 1075 -16 110 -18 383 -5
485 12 86 53 259 80 340 35 104 136 297 199 380 295 392 707 591 1221 592 105
0 191 -5 260 -17z"/>
</g>
</svg>
